<svg width="81" height="81" viewBox="0 0 81 81" fill="none" xmlns="http://www.w3.org/2000/svg">
<path d="M40.2 80.4C62.4018 80.4 80.4 62.4018 80.4 40.2C80.4 17.9982 62.4018 0 40.2 0C17.9982 0 0 17.9982 0 40.2C0 62.4018 17.9982 80.4 40.2 80.4Z" fill="#E6007A"/>
<path d="M40.8834 16.6453C31.5696 16.6453 23.9592 24.213 23.9592 33.5695C23.9592 35.4514 24.2707 37.288 24.8536 39.0769C25.06 39.6675 25.49 40.1535 26.051 40.4303C26.6121 40.707 27.2594 40.7525 27.8536 40.5568C28.4437 40.3499 28.9291 39.9198 29.2054 39.3588C29.4817 38.7978 29.5267 38.1507 29.3309 37.5568C28.8397 36.1621 28.6122 34.6882 28.6601 33.2102C28.8385 26.8988 33.9439 21.703 40.2578 21.3914C41.9117 21.3045 43.5659 21.555 45.12 22.1275C46.674 22.7001 48.0953 23.5828 49.2975 24.722C50.4996 25.8611 51.4575 27.2329 52.1128 28.7539C52.768 30.2749 53.1071 31.9134 53.1092 33.5695C53.1055 36.6842 51.9122 39.6797 49.7733 41.9438C47.6343 44.2079 44.7114 45.5695 41.602 45.7501C41.602 45.7501 39.2277 45.8833 38.0644 46.0642C37.4815 46.1521 37.0342 46.2426 36.7202 46.2878C36.5845 46.333 36.4513 46.1973 36.4941 46.0617L36.8986 44.0944L39.092 33.974C39.2198 33.3689 39.1036 32.7378 38.7686 32.2179C38.4336 31.698 37.9069 31.3314 37.3031 31.1977C36.6976 31.0699 36.0662 31.1865 35.5462 31.522C35.0263 31.8575 34.6599 32.3848 34.5268 32.9891C34.5268 32.9891 29.243 57.6166 29.1978 57.8855C29.07 58.491 29.1865 59.1224 29.522 59.6424C29.8575 60.1623 30.3848 60.5287 30.9892 60.6618C31.5946 60.7896 32.2261 60.673 32.746 60.3375C33.266 60.002 33.6324 59.4747 33.7655 58.8704C33.8082 58.6015 34.5268 55.3328 34.5268 55.3328C34.7811 54.1344 35.3993 53.0437 36.2969 52.2099C37.1946 51.3762 38.3278 50.8399 39.5417 50.6746C40.42 50.5784 41.3004 50.5039 42.1824 50.451C46.4335 50.1197 50.4034 48.1978 53.3001 45.0687C56.1967 41.9397 57.8072 37.8335 57.8101 33.5695C57.8101 24.213 50.1972 16.6453 40.8834 16.6453ZM42.0919 55.6016C41.7273 55.523 41.3508 55.5175 40.9841 55.5854C40.6174 55.6534 40.2678 55.7934 39.9556 55.9974C39.6433 56.2014 39.3747 56.4654 39.1652 56.7739C38.9558 57.0825 38.8096 57.4296 38.7352 57.795C38.4211 59.3176 39.3633 60.8402 40.9286 61.1542C41.2936 61.2332 41.6705 61.2389 42.0377 61.171C42.4048 61.1031 42.7548 60.9629 43.0673 60.7586C43.3798 60.5543 43.6487 60.2899 43.8582 59.9809C44.0677 59.6719 44.2138 59.3243 44.2878 58.9583C44.5994 57.393 43.6597 55.9132 42.0919 55.6016Z" fill="white"/>
</svg>
